<svg version="1.1" id="Layer_1" xmlns="http://www.w3.org/2000/svg" xmlns:xlink="http://www.w3.org/1999/xlink" x="0px" y="0px"
	 width="100%" viewBox="0 0 1536 1024" enable-background="new 0 0 1536 1024" xml:space="preserve">
<path fill="#010204" opacity="1.000000" stroke="none" 
	d="
M848.000000,1025.000000 
	C565.333313,1025.000000 283.166656,1025.000000 1.000000,1025.000000 
	C1.000000,683.666687 1.000000,342.333344 1.000000,1.000000 
	C513.000000,1.000000 1025.000000,1.000000 1537.000000,1.000000 
	C1537.000000,342.333344 1537.000000,683.666687 1537.000000,1025.000000 
	C1307.500000,1025.000000 1078.000000,1025.000000 848.000000,1025.000000 
M136.548538,462.983887 
	C126.314285,478.425018 112.383492,489.935486 97.352318,499.192383 
	C173.927109,534.879944 235.999817,585.675293 274.325653,662.913025 
	C287.588165,626.159973 312.262268,597.817444 343.009155,573.925781 
	C335.761841,601.894714 328.514526,629.863647 321.225281,657.994385 
	C346.850616,647.464661 383.684601,639.333923 399.320404,640.915955 
	C391.712280,650.615112 384.314850,660.045715 376.971802,669.406921 
	C429.359589,664.652527 481.376617,659.931702 533.652893,655.187378 
	C549.667114,605.959717 565.762756,556.481750 581.925171,506.798401 
	C600.203125,507.350250 618.430176,507.900543 636.703491,508.452271 
	C638.329529,558.900391 636.854980,608.202881 604.127563,651.966187 
	C622.476562,651.966187 639.436584,652.311890 656.377808,651.894897 
	C692.845459,650.997375 728.445801,655.019714 762.468811,669.051514 
	C763.856567,669.623840 765.342285,669.958618 767.360046,670.582886 
	C764.757874,664.105469 762.454224,658.371094 759.794678,651.750793 
	C766.977539,653.155090 773.256409,653.908325 779.254028,655.637146 
	C805.560486,663.220154 831.795593,671.052124 858.014099,678.934875 
	C859.522278,679.388306 860.950256,680.883911 861.906738,682.250549 
	C864.713745,686.261169 867.263855,690.451599 870.049316,694.781006 
	C887.492554,680.870178 904.262817,667.186157 926.329773,658.433716 
	C924.711548,670.433960 923.304077,680.871338 921.849854,691.655884 
	C923.665466,691.098572 925.215393,690.660522 926.740662,690.149109 
	C960.606506,678.793823 994.623169,676.769348 1029.214355,687.271057 
	C1049.153320,693.324402 1069.292603,693.489258 1088.759644,684.829712 
	C1094.174316,682.421143 1099.176636,679.085449 1105.092529,675.768860 
	C1080.492920,665.279053 1054.162964,639.295898 1053.268921,625.984131 
	C1097.047119,653.422363 1139.174072,654.244690 1178.928711,616.904907 
	C1179.387451,617.129944 1179.846191,617.355042 1180.304932,617.580078 
	C1178.515137,642.953552 1176.725220,668.327026 1174.921143,693.901489 
	C1210.720825,685.971619 1246.799561,682.215332 1284.001099,684.818420 
	C1285.622192,694.313232 1287.199585,703.552979 1288.853638,713.241028 
	C1333.059937,702.747986 1375.090210,686.566101 1416.750366,670.084473 
	C1391.490723,621.401672 1378.046875,569.412659 1367.816895,516.483337 
	C1357.540161,463.310699 1352.492798,409.568695 1353.036255,354.959167 
	C1321.933838,361.764465 1291.115356,363.405975 1259.499878,363.063385 
	C1263.348389,414.762482 1274.726318,464.203064 1288.521240,513.199341 
	C1259.986938,458.674500 1251.231323,399.824341 1251.105591,338.744324 
	C1219.224976,343.358307 1187.748901,342.487152 1155.559448,338.691864 
	C1156.790405,355.769135 1157.960938,372.008575 1159.209106,389.323730 
	C1138.020020,368.508240 1114.225586,355.709808 1084.758545,354.089722 
	C1084.758545,341.743835 1084.758545,330.039734 1084.758545,318.757385 
	C998.492798,311.854431 912.953308,304.961975 831.965637,271.748627 
	C824.928772,288.587616 817.984680,305.204803 811.014771,321.883606 
	C802.433777,319.667023 794.416016,317.595917 784.863892,315.128479 
	C792.119751,342.407715 798.132446,368.490753 806.060730,393.977875 
	C817.001038,429.147583 829.393921,463.865234 841.127319,498.789032 
	C841.622559,500.263184 841.741577,501.863739 842.035889,503.405396 
	C841.625549,503.535553 841.215210,503.665680 840.804871,503.795807 
	C835.396484,492.631836 829.647278,481.617126 824.675598,470.261932 
	C819.689453,458.873779 815.216858,447.241150 810.975708,435.550018 
	C795.846252,393.844788 787.966003,350.318390 779.029114,307.061951 
	C777.768005,300.958313 776.419006,294.872864 775.113342,288.791199 
	C754.387817,297.573364 733.396179,301.759003 711.141357,301.576599 
	C706.357422,308.128052 699.831909,312.651337 690.438843,314.010712 
	C691.068848,302.066589 691.662292,290.815765 692.292786,278.861389 
	C658.089661,272.703308 623.831848,266.535370 589.433716,260.342194 
	C586.171570,271.630768 583.249512,281.742188 580.327515,291.853577 
	C579.928040,291.890045 579.528503,291.926514 579.128967,291.962982 
	C575.430237,280.388062 571.731445,268.813110 567.915405,256.871063 
	C542.665283,259.006592 517.780273,260.985748 492.920288,263.241608 
	C449.749268,267.159088 406.574799,270.292877 363.293304,264.971558 
	C344.092834,262.610870 325.238281,258.734741 307.500977,250.682678 
	C305.193909,249.635376 302.945709,247.880402 301.378113,245.894455 
	C297.307343,240.737381 293.631104,235.268921 289.644226,229.711212 
	C259.299774,272.712585 217.244934,299.527802 169.251999,318.475708 
	C214.807297,365.810028 235.454605,450.540710 225.735260,485.038879 
	C200.700836,461.117126 179.100464,434.671265 159.391983,405.582520 
	C154.299484,426.068848 148.591751,445.423004 136.548538,462.983887 
z"/>
<path fill="#F5F5F5" opacity="1.000000" stroke="none" 
	d="
M136.756561,462.686218 
	C148.591751,445.423004 154.299484,426.068848 159.391983,405.582520 
	C179.100464,434.671265 200.700836,461.117126 225.735260,485.038879 
	C235.454605,450.540710 214.807297,365.810028 169.251999,318.475708 
	C217.244934,299.527802 259.299774,272.712585 289.644226,229.711212 
	C293.631104,235.268921 297.307343,240.737381 301.378113,245.894455 
	C302.945709,247.880402 305.193909,249.635376 307.500977,250.682678 
	C325.238281,258.734741 344.092834,262.610870 363.293304,264.971558 
	C406.574799,270.292877 449.749268,267.159088 492.920288,263.241608 
	C517.780273,260.985748 542.665283,259.006592 567.915405,256.871063 
	C571.731445,268.813110 575.430237,280.388062 579.128967,291.962982 
	C579.528503,291.926514 579.928040,291.890045 580.327515,291.853577 
	C583.249512,281.742188 586.171570,271.630768 589.433716,260.342194 
	C623.831848,266.535370 658.089661,272.703308 692.292786,278.861389 
	C691.662292,290.815765 691.068848,302.066589 690.438843,314.010712 
	C699.831909,312.651337 706.357422,308.128052 711.141357,301.576599 
	C733.396179,301.759003 754.387817,297.573364 775.113342,288.791199 
	C776.419006,294.872864 777.768005,300.958313 779.029114,307.061951 
	C787.966003,350.318390 795.846252,393.844788 810.975708,435.550018 
	C815.216858,447.241150 819.689453,458.873779 824.675598,470.261932 
	C829.647278,481.617126 835.396484,492.631836 840.804871,503.795807 
	C841.215210,503.665680 841.625549,503.535553 842.035889,503.405396 
	C841.741577,501.863739 841.622559,500.263184 841.127319,498.789032 
	C829.393921,463.865234 817.001038,429.147583 806.060730,393.977875 
	C798.132446,368.490753 792.119751,342.407715 784.863892,315.128479 
	C794.416016,317.595917 802.433777,319.667023 811.014771,321.883606 
	C817.984680,305.204803 824.928772,288.587616 831.965637,271.748627 
	C912.953308,304.961975 998.492798,311.854431 1084.758545,318.757385 
	C1084.758545,330.039734 1084.758545,341.743835 1084.758545,354.089722 
	C1114.225586,355.709808 1138.020020,368.508240 1159.209106,389.323730 
	C1157.960938,372.008575 1156.790405,355.769135 1155.559448,338.691864 
	C1187.748901,342.487152 1219.224976,343.358307 1251.105591,338.744324 
	C1251.231323,399.824341 1259.986938,458.674500 1288.521240,513.199341 
	C1274.726318,464.203064 1263.348389,414.762482 1259.499878,363.063385 
	C1291.115356,363.405975 1321.933838,361.764465 1353.036255,354.959167 
	C1352.492798,409.568695 1357.540161,463.310699 1367.816895,516.483337 
	C1378.046875,569.412659 1391.490723,621.401672 1416.750366,670.084473 
	C1375.090210,686.566101 1333.059937,702.747986 1288.853638,713.241028 
	C1287.199585,703.552979 1285.622192,694.313232 1284.001099,684.818420 
	C1246.799561,682.215332 1210.720825,685.971619 1174.921143,693.901489 
	C1176.725220,668.327026 1178.515137,642.953552 1180.304932,617.580078 
	C1179.846191,617.355042 1179.387451,617.129944 1178.928711,616.904907 
	C1139.174072,654.244690 1097.047119,653.422363 1053.268921,625.984131 
	C1054.162964,639.295898 1080.492920,665.279053 1105.092529,675.768860 
	C1099.176636,679.085449 1094.174316,682.421143 1088.759644,684.829712 
	C1069.292603,693.489258 1049.153320,693.324402 1029.214355,687.271057 
	C994.623169,676.769348 960.606506,678.793823 926.740662,690.149109 
	C925.215393,690.660522 923.665466,691.098572 921.849854,691.655884 
	C923.304077,680.871338 924.711548,670.433960 926.329773,658.433716 
	C904.262817,667.186157 887.492554,680.870178 870.049316,694.781006 
	C867.263855,690.451599 864.713745,686.261169 861.906738,682.250549 
	C860.950256,680.883911 859.522278,679.388306 858.014099,678.934875 
	C831.795593,671.052124 805.560486,663.220154 779.254028,655.637146 
	C773.256409,653.908325 766.977539,653.155090 759.794678,651.750793 
	C762.454224,658.371094 764.757874,664.105469 767.360046,670.582886 
	C765.342285,669.958618 763.856567,669.623840 762.468811,669.051514 
	C728.445801,655.019714 692.845459,650.997375 656.377808,651.894897 
	C639.436584,652.311890 622.476562,651.966187 604.127563,651.966187 
	C636.854980,608.202881 638.329529,558.900391 636.703491,508.452271 
	C618.430176,507.900543 600.203125,507.350250 581.925171,506.798401 
	C565.762756,556.481750 549.667114,605.959717 533.652893,655.187378 
	C481.376617,659.931702 429.359589,664.652527 376.971802,669.406921 
	C384.314850,660.045715 391.712280,650.615112 399.320404,640.915955 
	C383.684601,639.333923 346.850616,647.464661 321.225281,657.994385 
	C328.514526,629.863647 335.761841,601.894714 343.009155,573.925781 
	C312.262268,597.817444 287.588165,626.159973 274.325653,662.913025 
	C235.999817,585.675293 173.927109,534.879944 97.352318,499.192383 
	C112.383492,489.935486 126.314285,478.425018 136.756561,462.686218 
M849.075439,665.071960 
	C849.218506,664.557617 849.361633,664.043274 849.170532,662.938293 
	C815.698486,612.416626 788.850525,558.666992 770.677673,500.763763 
	C767.509888,490.670624 765.601257,480.182281 762.920166,469.086060 
	C773.795898,475.697998 777.408997,485.050873 779.197083,495.520935 
	C779.668091,498.279022 780.710083,500.949829 781.597229,503.625122 
	C799.261719,556.893921 824.223633,606.603638 854.913757,653.492859 
	C860.632019,662.229553 866.815552,670.661621 872.936462,679.452698 
	C898.642395,659.152771 926.330322,644.140137 957.845581,635.128479 
	C956.227112,632.529846 954.992188,630.809082 954.025513,628.948975 
	C950.132446,621.458618 945.608704,614.198853 942.603699,606.360901 
	C928.789001,570.328979 917.874390,533.368347 910.541687,495.497894 
	C905.521973,469.573303 900.768738,443.454407 898.412781,417.196625 
	C896.036865,390.715210 896.765747,363.955139 896.143066,337.316925 
	C896.103027,335.602905 896.137817,333.887146 896.137817,331.835785 
	C863.600281,337.789581 831.865173,337.338226 800.329712,331.128265 
	C800.059021,331.913757 799.821960,332.234802 799.876831,332.494049 
	C814.630859,402.190826 843.330200,467.562958 862.528931,536.078552 
	C855.900330,535.283569 850.718994,531.550354 846.152466,526.533081 
	C833.651978,512.798645 825.467407,496.445831 818.096863,479.699860 
	C796.436951,430.488312 782.725830,378.908081 772.967224,326.177246 
	C771.535278,318.440002 769.843750,310.750824 768.265686,303.006500 
	C751.521240,308.452393 735.199219,311.276672 718.499451,312.088287 
	C716.944763,312.163818 715.060486,312.574982 713.951904,313.543182 
	C707.362549,319.298187 699.739563,322.515991 690.757507,323.334320 
	C690.757507,324.847565 690.747986,326.135895 690.758972,327.424011 
	C690.960327,351.111023 696.468872,373.944458 702.669556,396.544220 
	C716.460144,446.806915 726.855530,497.680054 732.987854,549.464722 
	C736.534973,579.418640 744.355286,608.459534 753.977661,637.019958 
	C754.860352,639.640015 755.979187,641.098938 759.013550,641.478699 
	C764.608459,642.178955 770.226196,643.123169 775.661072,644.602661 
	C799.995239,651.226685 824.268433,658.075195 849.075439,665.071960 
M512.357178,468.924164 
	C495.100983,501.852417 477.796936,534.755920 460.709290,567.771362 
	C459.699249,569.722961 459.536072,573.022400 460.493256,574.937927 
	C467.910553,589.782166 479.462555,600.418091 494.721649,606.944092 
	C499.877777,609.149231 505.149811,611.083374 511.409851,613.551880 
	C501.102356,624.151184 491.238342,634.256287 481.426788,644.412048 
	C479.131409,646.787903 476.735840,647.205017 473.426910,646.516724 
	C452.673828,642.200012 431.653778,640.277039 411.034943,639.985291 
	C407.092743,645.925049 403.421326,651.456848 399.541382,657.302795 
	C417.610443,655.518433 435.292450,653.622070 453.003937,652.060364 
	C476.221344,650.013184 499.466553,648.280945 522.682068,646.214172 
	C524.163696,646.082275 526.317749,644.513306 526.772400,643.150391 
	C538.272949,608.676025 549.628479,574.152954 560.915405,539.607788 
	C565.591248,525.296875 570.050659,510.915222 574.581787,496.649719 
	C598.475952,497.251190 622.053955,497.844727 645.805481,498.442596 
	C648.727539,547.756592 648.185547,596.501526 623.063293,642.225708 
	C645.203613,642.225708 666.201294,641.684021 687.157959,642.378174 
	C708.064636,643.070679 728.632019,646.747070 749.364990,653.296509 
	C748.698608,651.095581 748.332336,649.535583 747.762085,648.054077 
	C738.184387,623.174194 731.230713,597.557129 726.918945,571.276062 
	C723.149780,548.302490 720.882080,525.049622 716.317566,502.247131 
	C709.473572,468.057739 701.924683,433.970367 693.335144,400.180328 
	C684.416992,365.097504 677.995972,329.982697 682.078430,293.628845 
	C682.274536,291.882172 682.103577,290.094269 682.103577,287.935211 
	C653.273743,282.797241 624.854309,277.732391 596.015747,272.592865 
	C594.548462,277.936981 593.252258,282.705353 591.929688,287.466400 
	C585.655762,310.051483 585.655579,310.049225 598.481323,329.450592 
	C603.666504,337.294220 608.838989,345.146271 613.912964,352.836426 
	C600.966675,352.185455 588.207214,351.320953 575.433655,350.969666 
	C564.540466,350.670074 564.768494,351.034729 560.409668,360.926544 
	C544.621399,396.755615 528.661133,432.508881 512.357178,468.924164 
M1181.838989,351.569946 
	C1176.775391,351.232208 1171.711792,350.894440 1166.232178,350.528931 
	C1166.946289,361.085144 1167.697144,371.027496 1168.272583,380.980042 
	C1169.013184,393.790649 1171.087524,406.057281 1181.127563,415.376953 
	C1181.486084,415.709656 1181.735596,416.169403 1181.999634,416.592560 
	C1194.940308,437.328796 1204.665649,459.369965 1209.507935,483.457184 
	C1217.809570,524.752014 1214.235962,564.169861 1191.552734,600.725403 
	C1190.409912,602.567139 1189.902466,605.032776 1189.784180,607.244568 
	C1188.787109,625.869873 1187.992920,644.505920 1187.039673,663.133728 
	C1186.737549,669.037720 1186.138916,674.926514 1185.630005,681.406250 
	C1217.842163,674.791443 1249.733887,672.955505 1283.099365,674.454651 
	C1276.211060,649.791138 1270.015991,626.201050 1262.992676,602.860229 
	C1255.986816,579.576782 1248.150879,556.543152 1240.602661,533.164490 
	C1243.390259,532.123413 1246.295776,531.038269 1249.506836,529.839050 
	C1269.129272,585.944519 1287.061401,642.171753 1297.367065,700.940247 
	C1333.143677,691.049622 1367.952148,678.746582 1401.837158,664.826660 
	C1361.824097,569.779907 1345.008057,470.458710 1343.121094,368.851166 
	C1318.731445,370.592743 1294.583618,372.317047 1270.075928,374.067047 
	C1276.166870,429.053589 1288.904175,483.004974 1307.842041,535.525940 
	C1298.872437,538.202759 1292.054932,536.511902 1286.271851,528.084839 
	C1280.198120,519.234253 1274.310425,509.966095 1270.203857,500.104889 
	C1251.056396,454.125763 1242.441528,405.924744 1241.573120,356.241913 
	C1241.542847,354.505493 1241.425293,352.770599 1241.375854,351.654724 
	C1221.377075,351.654724 1202.079712,351.654724 1181.838989,351.569946 
M291.142700,392.282898 
	C291.142700,381.027588 291.142700,369.772308 291.142700,358.654694 
	C279.966370,355.082886 269.373993,354.207214 258.440796,356.931030 
	C257.185303,353.758514 256.052094,350.894958 254.801163,347.733917 
	C270.412628,343.333771 285.110626,345.210114 299.318451,351.543335 
	C318.089355,359.910553 333.169464,373.197296 346.589294,388.411743 
	C354.254028,397.101532 361.294037,406.342377 369.046722,415.864929 
	C379.734100,388.074860 391.460510,361.231934 408.165222,336.262878 
	C361.780731,315.455444 318.277649,291.848572 289.389679,248.021103 
	C262.035187,282.369781 226.454834,304.842712 187.244904,322.696289 
	C188.060226,323.898102 188.488525,324.575104 188.961197,325.219574 
	C207.742050,350.825562 220.922684,379.181458 229.622910,409.594391 
	C237.199432,436.079285 240.407379,463.024475 236.251831,490.554718 
	C236.000748,492.218079 237.243942,494.710785 238.595322,495.918518 
	C251.695236,507.625702 265.934357,517.838928 282.464905,523.961182 
	C289.215790,526.461426 291.653900,530.617798 292.604370,537.234253 
	C291.073792,536.962830 289.638153,536.795227 288.247223,536.448425 
	C270.165039,531.940063 254.165024,523.177124 239.959381,511.410767 
	C213.037872,489.112000 189.377640,463.645752 168.454483,435.638123 
	C167.039627,433.744171 165.449249,431.981323 163.429001,429.539154 
	C155.003510,457.130341 140.559372,479.575104 118.338936,497.177643 
	C182.248245,531.699280 236.617996,575.761292 273.734406,639.332642 
	C293.674225,600.455688 325.233612,572.665588 359.190704,546.980896 
	C337.886444,525.152039 323.134644,499.248383 311.334015,471.597473 
	C300.641022,446.541931 294.108795,420.312103 291.142700,392.282898 
M993.756165,445.957733 
	C991.630371,418.027222 990.884888,390.157959 996.994690,362.542847 
	C1000.541870,362.542847 1003.624939,362.542847 1006.178101,362.542847 
	C1004.575134,374.369965 1003.002502,385.972778 1001.292419,398.590210 
	C1028.068481,388.420135 1054.416870,384.948730 1082.283081,388.940033 
	C1074.947021,368.809753 1074.153687,348.660461 1074.846436,328.707794 
	C1058.715698,327.264862 1043.271851,326.258331 1027.926270,324.427856 
	C1001.000366,321.216064 973.994934,318.317657 947.284363,313.756287 
	C922.268127,309.484283 897.482483,303.671570 872.810852,297.653442 
	C860.696167,294.698364 849.069458,289.742645 836.873169,285.573059 
	C831.652588,298.138275 826.398376,310.784241 820.979614,323.826416 
	C849.586914,327.238190 877.578552,324.624390 905.920776,319.780701 
	C905.920776,322.964264 905.913574,325.275635 905.921875,327.586945 
	C905.992126,347.081604 906.017029,366.576782 906.221802,386.070038 
	C906.239563,387.762970 906.973938,390.068329 908.201843,390.999573 
	C910.762573,392.941711 913.876526,394.154510 916.884827,395.730652 
	C918.563049,381.345764 920.213745,367.197052 921.896545,352.773102 
	C925.627136,353.003571 928.696716,353.193176 931.613098,353.373352 
	C931.808228,354.231812 931.968628,354.558411 931.940308,354.867737 
	C929.953552,376.557617 926.852783,398.214539 926.228455,419.942719 
	C925.440125,447.379303 927.132751,474.878754 926.847107,502.341614 
	C926.687439,517.687683 928.557678,532.481140 933.142944,547.033081 
	C934.838623,552.414490 936.367981,557.848450 938.070435,563.227722 
	C944.628357,583.948547 950.405334,605.017395 962.283630,623.561584 
	C966.086182,629.497925 970.808533,634.845154 975.007629,640.328247 
	C961.297119,644.951721 947.567993,649.581543 934.441284,654.008179 
	C934.441284,662.432190 934.441284,669.660706 934.441284,677.234070 
	C935.866272,676.931946 937.115234,676.603455 938.384705,676.407959 
	C951.831726,674.337280 965.218689,671.417847 978.746033,670.433716 
	C999.753113,668.905457 1019.935913,674.700500 1040.187256,679.441956 
	C1054.332275,682.753723 1068.297607,681.593323 1082.601562,676.381714 
	C1064.266602,663.592102 1051.127808,647.236389 1041.741821,627.969116 
	C1013.881653,570.778198 999.645813,509.933502 993.756165,445.957733 
M411.442719,326.128418 
	C415.658875,327.821503 419.875031,329.514587 424.380585,331.323883 
	C405.808258,356.640381 392.711700,384.193512 381.752533,412.806183 
	C378.626587,420.967529 375.573120,429.405609 374.306580,437.985474 
	C369.766968,468.738159 365.969116,499.601166 362.049744,530.442627 
	C361.816956,532.274536 362.495728,534.624878 363.576599,536.147278 
	C367.113220,541.128662 371.032043,545.838684 374.517120,550.286926 
	C370.808380,552.660461 364.807800,556.207703 359.175568,560.266235 
	C357.238037,561.662415 355.502411,564.145996 354.895630,566.453857 
	C350.084412,584.753174 345.583252,603.133972 340.952698,621.481079 
	C339.264160,628.171570 337.483002,634.838623 335.650909,641.874268 
	C336.821289,641.728882 337.301758,641.754700 337.719482,641.605164 
	C361.172943,633.209839 385.515350,629.423218 410.242401,630.219849 
	C430.807251,630.882446 451.301208,633.708862 471.832886,635.504883 
	C473.541138,635.654358 475.942871,635.931946 476.925293,634.997070 
	C482.674316,629.526306 488.096527,623.711975 493.860168,617.775513 
	C488.695496,615.132446 484.016052,613.047607 479.643677,610.446655 
	C460.472137,599.042358 450.281555,581.020020 444.040955,560.491821 
	C431.076874,517.847168 431.139954,474.088593 434.684662,430.302673 
	C436.803955,404.123962 440.826752,378.097137 444.101593,352.015533 
	C445.128723,343.835052 446.506348,335.698578 447.737091,327.451111 
	C459.386841,332.131348 459.245972,332.105377 457.424530,341.984528 
	C455.473511,352.566193 453.823853,363.203430 452.025787,373.917084 
	C494.696442,343.776855 543.101440,340.187164 592.882935,341.122284 
	C592.570007,340.260498 592.400452,339.301392 591.919006,338.539429 
	C578.880310,317.904694 569.166504,295.778290 562.515503,272.328583 
	C561.481323,268.682281 559.762939,268.324829 556.465271,268.597412 
	C515.160583,272.011688 473.864532,275.576477 432.521729,278.465820 
	C409.067139,280.105011 385.545166,279.483856 362.218262,276.176422 
	C348.135498,274.179657 334.157654,271.442932 319.256042,268.888428 
	C346.055634,294.519836 377.436890,311.708313 411.442719,326.128418 
M1019.026306,536.410706 
	C1023.364563,551.042786 1027.486694,565.743469 1032.109131,580.285217 
	C1035.839355,592.020264 1040.187012,603.321533 1050.818848,611.226318 
	C1061.707031,619.321472 1072.878784,626.600159 1085.881348,630.762695 
	C1117.394897,640.851196 1145.288574,634.957520 1168.935913,611.508484 
	C1192.512573,588.129517 1202.986206,558.976990 1203.714600,526.455200 
	C1204.600830,486.892853 1193.072388,450.704071 1170.331055,418.308746 
	C1156.154053,398.113464 1138.709717,381.467072 1115.585205,371.681519 
	C1106.248901,367.730713 1096.580566,365.044220 1084.663574,364.813660 
	C1089.623047,378.174713 1094.228516,390.581848 1098.766968,402.808319 
	C1098.933594,402.808319 1098.419800,402.917358 1097.970825,402.792664 
	C1076.076294,396.713776 1054.023682,396.010529 1031.859863,401.055481 
	C1029.612549,401.567047 1026.808350,402.694916 1025.657227,404.450989 
	C1019.288452,414.166229 1013.141052,424.044495 1007.382751,434.132324 
	C1005.391785,437.620392 1003.378723,441.980988 1003.685303,445.755432 
	C1006.151917,476.120270 1011.210083,506.089752 1019.026306,536.410706 
M445.966492,413.537750 
	C441.828339,454.441589 440.682770,495.305237 448.072937,535.997009 
	C449.406097,543.337891 451.459137,550.548035 453.179871,557.818542 
	C453.750000,557.780457 454.320129,557.742371 454.890259,557.704285 
	C493.058044,491.892242 523.932556,422.586945 553.792542,352.100342 
	C551.739990,352.100342 550.747437,352.028198 549.768066,352.110901 
	C526.106079,354.108582 503.079193,358.881165 481.221954,368.386444 
	C469.516846,373.476837 458.932098,380.318298 450.547699,390.148682 
	C449.514313,391.360321 448.319519,392.808533 448.105194,394.279114 
	C447.217957,400.367340 446.678741,406.506256 445.966492,413.537750 
M325.154205,478.288727 
	C332.874939,494.328217 341.685089,509.701233 352.767548,524.732117 
	C353.341248,522.728943 353.736481,521.806946 353.860321,520.849854 
	C357.209778,494.966156 360.630463,469.090973 363.789124,443.183838 
	C364.593475,436.586151 366.366364,429.879272 361.222809,423.690186 
	C352.302795,412.957001 344.278961,401.463440 335.129181,390.941040 
	C325.612671,379.997040 314.260651,371.042236 300.259247,363.541046 
	C299.167908,404.196686 308.275604,441.671661 325.154205,478.288727 
M915.122498,470.632874 
	C915.438049,470.861237 915.753601,471.089569 916.069214,471.317902 
	C916.148010,470.839966 916.296326,470.361908 916.295471,469.884125 
	C916.262878,451.276703 916.139893,432.668976 916.216614,414.062073 
	C916.241333,408.078308 913.524780,404.343292 906.862000,402.746735 
	C907.633179,425.464203 910.398376,447.794800 915.122498,470.632874 
M1001.849548,419.082642 
	C1002.045654,420.034027 1002.241760,420.985413 1002.437805,421.936768 
	C1002.879333,421.996033 1003.320862,422.055267 1003.762390,422.114502 
	C1005.282410,418.020294 1006.802429,413.926086 1008.450806,409.486206 
	C1000.237244,409.192627 1002.172729,414.389374 1001.849548,419.082642 
z"/>
<path fill="#020305" opacity="1.000000" stroke="none" 
	d="
M848.563599,664.842712 
	C824.268433,658.075195 799.995239,651.226685 775.661072,644.602661 
	C770.226196,643.123169 764.608459,642.178955 759.013550,641.478699 
	C755.979187,641.098938 754.860352,639.640015 753.977661,637.019958 
	C744.355286,608.459534 736.534973,579.418640 732.987854,549.464722 
	C726.855530,497.680054 716.460144,446.806915 702.669556,396.544220 
	C696.468872,373.944458 690.960327,351.111023 690.758972,327.424011 
	C690.747986,326.135895 690.757507,324.847565 690.757507,323.334320 
	C699.739563,322.515991 707.362549,319.298187 713.951904,313.543182 
	C715.060486,312.574982 716.944763,312.163818 718.499451,312.088287 
	C735.199219,311.276672 751.521240,308.452393 768.265686,303.006500 
	C769.843750,310.750824 771.535278,318.440002 772.967224,326.177246 
	C782.725830,378.908081 796.436951,430.488312 818.096863,479.699860 
	C825.467407,496.445831 833.651978,512.798645 846.152466,526.533081 
	C850.718994,531.550354 855.900330,535.283569 862.528931,536.078552 
	C843.330200,467.562958 814.630859,402.190826 799.876831,332.494049 
	C799.821960,332.234802 800.059021,331.913757 800.329712,331.128265 
	C831.865173,337.338226 863.600281,337.789581 896.137817,331.835785 
	C896.137817,333.887146 896.103027,335.602905 896.143066,337.316925 
	C896.765747,363.955139 896.036865,390.715210 898.412781,417.196625 
	C900.768738,443.454407 905.521973,469.573303 910.541687,495.497894 
	C917.874390,533.368347 928.789001,570.328979 942.603699,606.360901 
	C945.608704,614.198853 950.132446,621.458618 954.025513,628.948975 
	C954.992188,630.809082 956.227112,632.529846 957.845581,635.128479 
	C926.330322,644.140137 898.642395,659.152771 872.936462,679.452698 
	C866.815552,670.661621 860.632019,662.229553 854.913757,653.492859 
	C824.223633,606.603638 799.261719,556.893921 781.597229,503.625122 
	C780.710083,500.949829 779.668091,498.279022 779.197083,495.520935 
	C777.408997,485.050873 773.795898,475.697998 762.920166,469.086060 
	C765.601257,480.182281 767.509888,490.670624 770.677673,500.763763 
	C788.850525,558.666992 815.698486,612.416626 849.079956,663.546021 
	C848.847473,664.383423 848.705505,664.613037 848.563599,664.842712 
z"/>
<path fill="#020305" opacity="1.000000" stroke="none" 
	d="
M512.561462,468.607452 
	C528.661133,432.508881 544.621399,396.755615 560.409668,360.926544 
	C564.768494,351.034729 564.540466,350.670074 575.433655,350.969666 
	C588.207214,351.320953 600.966675,352.185455 613.912964,352.836426 
	C608.838989,345.146271 603.666504,337.294220 598.481323,329.450592 
	C585.655579,310.049225 585.655762,310.051483 591.929688,287.466400 
	C593.252258,282.705353 594.548462,277.936981 596.015747,272.592865 
	C624.854309,277.732391 653.273743,282.797241 682.103577,287.935211 
	C682.103577,290.094269 682.274536,291.882172 682.078430,293.628845 
	C677.995972,329.982697 684.416992,365.097504 693.335144,400.180328 
	C701.924683,433.970367 709.473572,468.057739 716.317566,502.247131 
	C720.882080,525.049622 723.149780,548.302490 726.918945,571.276062 
	C731.230713,597.557129 738.184387,623.174194 747.762085,648.054077 
	C748.332336,649.535583 748.698608,651.095581 749.364990,653.296509 
	C728.632019,646.747070 708.064636,643.070679 687.157959,642.378174 
	C666.201294,641.684021 645.203613,642.225708 623.063293,642.225708 
	C648.185547,596.501526 648.727539,547.756592 645.805481,498.442596 
	C622.053955,497.844727 598.475952,497.251190 574.581787,496.649719 
	C570.050659,510.915222 565.591248,525.296875 560.915405,539.607788 
	C549.628479,574.152954 538.272949,608.676025 526.772400,643.150391 
	C526.317749,644.513306 524.163696,646.082275 522.682068,646.214172 
	C499.466553,648.280945 476.221344,650.013184 453.003937,652.060364 
	C435.292450,653.622070 417.610443,655.518433 399.541382,657.302795 
	C403.421326,651.456848 407.092743,645.925049 411.034943,639.985291 
	C431.653778,640.277039 452.673828,642.200012 473.426910,646.516724 
	C476.735840,647.205017 479.131409,646.787903 481.426788,644.412048 
	C491.238342,634.256287 501.102356,624.151184 511.409851,613.551880 
	C505.149811,611.083374 499.877777,609.149231 494.721649,606.944092 
	C479.462555,600.418091 467.910553,589.782166 460.493256,574.937927 
	C459.536072,573.022400 459.699249,569.722961 460.709290,567.771362 
	C477.796936,534.755920 495.100983,501.852417 512.561462,468.607452 
M637.615906,451.048981 
	C637.691772,448.625763 638.166199,446.137054 637.780762,443.789581 
	C634.499634,423.804901 630.920044,403.868256 627.770081,383.863647 
	C626.968567,378.773010 623.830200,377.659027 619.063416,376.813141 
	C608.177734,401.404572 597.292786,425.994293 586.179260,451.100555 
	C603.938171,451.100555 620.344421,451.100555 637.615906,451.048981 
z"/>
<path fill="#020305" opacity="1.000000" stroke="none" 
	d="
M1182.310669,351.612335 
	C1202.079712,351.654724 1221.377075,351.654724 1241.375854,351.654724 
	C1241.425293,352.770599 1241.542847,354.505493 1241.573120,356.241913 
	C1242.441528,405.924744 1251.056396,454.125763 1270.203857,500.104889 
	C1274.310425,509.966095 1280.198120,519.234253 1286.271851,528.084839 
	C1292.054932,536.511902 1298.872437,538.202759 1307.842041,535.525940 
	C1288.904175,483.004974 1276.166870,429.053589 1270.075928,374.067047 
	C1294.583618,372.317047 1318.731445,370.592743 1343.121094,368.851166 
	C1345.008057,470.458710 1361.824097,569.779907 1401.837158,664.826660 
	C1367.952148,678.746582 1333.143677,691.049622 1297.367065,700.940247 
	C1287.061401,642.171753 1269.129272,585.944519 1249.506836,529.839050 
	C1246.295776,531.038269 1243.390259,532.123413 1240.602661,533.164490 
	C1248.150879,556.543152 1255.986816,579.576782 1262.992676,602.860229 
	C1270.015991,626.201050 1276.211060,649.791138 1283.099365,674.454651 
	C1249.733887,672.955505 1217.842163,674.791443 1185.630005,681.406250 
	C1186.138916,674.926514 1186.737549,669.037720 1187.039673,663.133728 
	C1187.992920,644.505920 1188.787109,625.869873 1189.784180,607.244568 
	C1189.902466,605.032776 1190.409912,602.567139 1191.552734,600.725403 
	C1214.235962,564.169861 1217.809570,524.752014 1209.507935,483.457184 
	C1204.665649,459.369965 1194.940308,437.328796 1181.999634,416.592560 
	C1181.735596,416.169403 1181.486084,415.709656 1181.127563,415.376953 
	C1171.087524,406.057281 1169.013184,393.790649 1168.272583,380.980042 
	C1167.697144,371.027496 1166.946289,361.085144 1166.232178,350.528931 
	C1171.711792,350.894440 1176.775391,351.232208 1182.310669,351.612335 
z"/>
<path fill="#020305" opacity="1.000000" stroke="none" 
	d="
M291.188599,392.740417 
	C294.108795,420.312103 300.641022,446.541931 311.334015,471.597473 
	C323.134644,499.248383 337.886444,525.152039 359.190704,546.980896 
	C325.233612,572.665588 293.674225,600.455688 273.734406,639.332642 
	C236.617996,575.761292 182.248245,531.699280 118.338936,497.177643 
	C140.559372,479.575104 155.003510,457.130341 163.429001,429.539154 
	C165.449249,431.981323 167.039627,433.744171 168.454483,435.638123 
	C189.377640,463.645752 213.037872,489.112000 239.959381,511.410767 
	C254.165024,523.177124 270.165039,531.940063 288.247223,536.448425 
	C289.638153,536.795227 291.073792,536.962830 292.604370,537.234253 
	C291.653900,530.617798 289.215790,526.461426 282.464905,523.961182 
	C265.934357,517.838928 251.695236,507.625702 238.595322,495.918518 
	C237.243942,494.710785 236.000748,492.218079 236.251831,490.554718 
	C240.407379,463.024475 237.199432,436.079285 229.622910,409.594391 
	C220.922684,379.181458 207.742050,350.825562 188.961197,325.219574 
	C188.488525,324.575104 188.060226,323.898102 187.244904,322.696289 
	C226.454834,304.842712 262.035187,282.369781 289.389679,248.021103 
	C318.277649,291.848572 361.780731,315.455444 408.165222,336.262878 
	C391.460510,361.231934 379.734100,388.074860 369.046722,415.864929 
	C361.294037,406.342377 354.254028,397.101532 346.589294,388.411743 
	C333.169464,373.197296 318.089355,359.910553 299.318451,351.543335 
	C285.110626,345.210114 270.412628,343.333771 254.801163,347.733917 
	C256.052094,350.894958 257.185303,353.758514 258.440796,356.931030 
	C269.373993,354.207214 279.966370,355.082886 291.142700,358.654694 
	C291.142700,369.772308 291.142700,381.027588 291.188599,392.740417 
z"/>
<path fill="#020305" opacity="1.000000" stroke="none" 
	d="
M993.803101,446.419403 
	C999.645813,509.933502 1013.881653,570.778198 1041.741821,627.969116 
	C1051.127808,647.236389 1064.266602,663.592102 1082.601562,676.381714 
	C1068.297607,681.593323 1054.332275,682.753723 1040.187256,679.441956 
	C1019.935913,674.700500 999.753113,668.905457 978.746033,670.433716 
	C965.218689,671.417847 951.831726,674.337280 938.384705,676.407959 
	C937.115234,676.603455 935.866272,676.931946 934.441284,677.234070 
	C934.441284,669.660706 934.441284,662.432190 934.441284,654.008179 
	C947.567993,649.581543 961.297119,644.951721 975.007629,640.328247 
	C970.808533,634.845154 966.086182,629.497925 962.283630,623.561584 
	C950.405334,605.017395 944.628357,583.948547 938.070435,563.227722 
	C936.367981,557.848450 934.838623,552.414490 933.142944,547.033081 
	C928.557678,532.481140 926.687439,517.687683 926.847107,502.341614 
	C927.132751,474.878754 925.440125,447.379303 926.228455,419.942719 
	C926.852783,398.214539 929.953552,376.557617 931.940308,354.867737 
	C931.968628,354.558411 931.808228,354.231812 931.613098,353.373352 
	C928.696716,353.193176 925.627136,353.003571 921.896545,352.773102 
	C920.213745,367.197052 918.563049,381.345764 916.884827,395.730652 
	C913.876526,394.154510 910.762573,392.941711 908.201843,390.999573 
	C906.973938,390.068329 906.239563,387.762970 906.221802,386.070038 
	C906.017029,366.576782 905.992126,347.081604 905.921875,327.586945 
	C905.913574,325.275635 905.920776,322.964264 905.920776,319.780701 
	C877.578552,324.624390 849.586914,327.238190 820.979614,323.826416 
	C826.398376,310.784241 831.652588,298.138275 836.873169,285.573059 
	C849.069458,289.742645 860.696167,294.698364 872.810852,297.653442 
	C897.482483,303.671570 922.268127,309.484283 947.284363,313.756287 
	C973.994934,318.317657 1001.000366,321.216064 1027.926270,324.427856 
	C1043.271851,326.258331 1058.715698,327.264862 1074.846436,328.707794 
	C1074.153687,348.660461 1074.947021,368.809753 1082.283081,388.940033 
	C1054.416870,384.948730 1028.068481,388.420135 1001.292419,398.590210 
	C1003.002502,385.972778 1004.575134,374.369965 1006.178101,362.542847 
	C1003.624939,362.542847 1000.541870,362.542847 996.994690,362.542847 
	C990.884888,390.157959 991.630371,418.027222 993.803101,446.419403 
z"/>
<path fill="#020305" opacity="1.000000" stroke="none" 
	d="
M411.070221,326.029175 
	C377.436890,311.708313 346.055634,294.519836 319.256042,268.888428 
	C334.157654,271.442932 348.135498,274.179657 362.218262,276.176422 
	C385.545166,279.483856 409.067139,280.105011 432.521729,278.465820 
	C473.864532,275.576477 515.160583,272.011688 556.465271,268.597412 
	C559.762939,268.324829 561.481323,268.682281 562.515503,272.328583 
	C569.166504,295.778290 578.880310,317.904694 591.919006,338.539429 
	C592.400452,339.301392 592.570007,340.260498 592.882935,341.122284 
	C543.101440,340.187164 494.696442,343.776855 452.025787,373.917084 
	C453.823853,363.203430 455.473511,352.566193 457.424530,341.984528 
	C459.245972,332.105377 459.386841,332.131348 447.737091,327.451111 
	C446.506348,335.698578 445.128723,343.835052 444.101593,352.015533 
	C440.826752,378.097137 436.803955,404.123962 434.684662,430.302673 
	C431.139954,474.088593 431.076874,517.847168 444.040955,560.491821 
	C450.281555,581.020020 460.472137,599.042358 479.643677,610.446655 
	C484.016052,613.047607 488.695496,615.132446 493.860168,617.775513 
	C488.096527,623.711975 482.674316,629.526306 476.925293,634.997070 
	C475.942871,635.931946 473.541138,635.654358 471.832886,635.504883 
	C451.301208,633.708862 430.807251,630.882446 410.242401,630.219849 
	C385.515350,629.423218 361.172943,633.209839 337.719482,641.605164 
	C337.301758,641.754700 336.821289,641.728882 335.650909,641.874268 
	C337.483002,634.838623 339.264160,628.171570 340.952698,621.481079 
	C345.583252,603.133972 350.084412,584.753174 354.895630,566.453857 
	C355.502411,564.145996 357.238037,561.662415 359.175568,560.266235 
	C364.807800,556.207703 370.808380,552.660461 374.517120,550.286926 
	C371.032043,545.838684 367.113220,541.128662 363.576599,536.147278 
	C362.495728,534.624878 361.816956,532.274536 362.049744,530.442627 
	C365.969116,499.601166 369.766968,468.738159 374.306580,437.985474 
	C375.573120,429.405609 378.626587,420.967529 381.752533,412.806183 
	C392.711700,384.193512 405.808258,356.640381 424.380585,331.323883 
	C419.875031,329.514587 415.658875,327.821503 411.070221,326.029175 
z"/>
<path fill="#020305" opacity="1.000000" stroke="none" 
	d="
M1018.967163,536.000488 
	C1011.210083,506.089752 1006.151917,476.120270 1003.685303,445.755432 
	C1003.378723,441.980988 1005.391785,437.620392 1007.382751,434.132324 
	C1013.141052,424.044495 1019.288452,414.166229 1025.657227,404.450989 
	C1026.808350,402.694916 1029.612549,401.567047 1031.859863,401.055481 
	C1054.023682,396.010529 1076.076294,396.713776 1097.970825,402.792664 
	C1098.419800,402.917358 1098.933594,402.808319 1098.766968,402.808319 
	C1094.228516,390.581848 1089.623047,378.174713 1084.663574,364.813660 
	C1096.580566,365.044220 1106.248901,367.730713 1115.585205,371.681519 
	C1138.709717,381.467072 1156.154053,398.113464 1170.331055,418.308746 
	C1193.072388,450.704071 1204.600830,486.892853 1203.714600,526.455200 
	C1202.986206,558.976990 1192.512573,588.129517 1168.935913,611.508484 
	C1145.288574,634.957520 1117.394897,640.851196 1085.881348,630.762695 
	C1072.878784,626.600159 1061.707031,619.321472 1050.818848,611.226318 
	C1040.187012,603.321533 1035.839355,592.020264 1032.109131,580.285217 
	C1027.486694,565.743469 1023.364563,551.042786 1018.967163,536.000488 
M1055.795166,511.733002 
	C1056.197510,513.682373 1056.513550,515.654236 1057.015869,517.577515 
	C1060.718872,531.756409 1066.370605,544.782715 1077.463013,555.037109 
	C1091.093262,567.637634 1110.632324,569.270081 1122.996704,557.368042 
	C1128.335571,552.228821 1132.808228,545.558350 1135.820557,538.761841 
	C1142.554077,523.569763 1142.365723,507.322449 1139.865112,491.210083 
	C1136.967651,472.540710 1129.717651,455.787842 1115.692261,442.627686 
	C1103.180542,430.887878 1087.205322,429.217804 1074.720581,437.933258 
	C1067.823486,442.748016 1063.092529,449.236084 1059.961670,456.950531 
	C1052.851318,474.470398 1052.709961,492.568176 1055.795166,511.733002 
z"/>
<path fill="#020305" opacity="1.000000" stroke="none" 
	d="
M445.989105,413.082153 
	C446.678741,406.506256 447.217957,400.367340 448.105194,394.279114 
	C448.319519,392.808533 449.514313,391.360321 450.547699,390.148682 
	C458.932098,380.318298 469.516846,373.476837 481.221954,368.386444 
	C503.079193,358.881165 526.106079,354.108582 549.768066,352.110901 
	C550.747437,352.028198 551.739990,352.100342 553.792542,352.100342 
	C523.932556,422.586945 493.058044,491.892242 454.890259,557.704285 
	C454.320129,557.742371 453.750000,557.780457 453.179871,557.818542 
	C451.459137,550.548035 449.406097,543.337891 448.072937,535.997009 
	C440.682770,495.305237 441.828339,454.441589 445.989105,413.082153 
z"/>
<path fill="#030305" opacity="1.000000" stroke="none" 
	d="
M325.035889,477.929871 
	C308.275604,441.671661 299.167908,404.196686 300.259247,363.541046 
	C314.260651,371.042236 325.612671,379.997040 335.129181,390.941040 
	C344.278961,401.463440 352.302795,412.957001 361.222809,423.690186 
	C366.366364,429.879272 364.593475,436.586151 363.789124,443.183838 
	C360.630463,469.090973 357.209778,494.966156 353.860321,520.849854 
	C353.736481,521.806946 353.341248,522.728943 352.767548,524.732117 
	C341.685089,509.701233 332.874939,494.328217 325.035889,477.929871 
z"/>
<path fill="#0F0F10" opacity="1.000000" stroke="none" 
	d="
M915.073792,470.271973 
	C910.398376,447.794800 907.633179,425.464203 906.862000,402.746735 
	C913.524780,404.343292 916.241333,408.078308 916.216614,414.062073 
	C916.139893,432.668976 916.262878,451.276703 916.295471,469.884125 
	C916.296326,470.361908 916.148010,470.839966 916.069214,471.317932 
	C915.753601,471.089569 915.438049,470.861237 915.073792,470.271973 
z"/>
<path fill="#101011" opacity="1.000000" stroke="none" 
	d="
M1001.846069,418.643860 
	C1002.172729,414.389374 1000.237244,409.192627 1008.450806,409.486206 
	C1006.802429,413.926086 1005.282410,418.020294 1003.762390,422.114502 
	C1003.320862,422.055267 1002.879333,421.996033 1002.437805,421.936768 
	C1002.241760,420.985413 1002.045654,420.034027 1001.846069,418.643860 
z"/>
<path fill="#020305" opacity="1.000000" stroke="none" 
	d="
M849.247070,663.841309 
	C849.361633,664.043274 849.218506,664.557617 848.819519,664.957336 
	C848.705505,664.613037 848.847473,664.383423 849.247070,663.841309 
z"/>
<path fill="#F4F5F4" opacity="1.000000" stroke="none" 
	d="
M637.183228,451.074768 
	C620.344421,451.100555 603.938171,451.100555 586.179260,451.100555 
	C597.292786,425.994293 608.177734,401.404572 619.063416,376.813141 
	C623.830200,377.659027 626.968567,378.773010 627.770081,383.863647 
	C630.920044,403.868256 634.499634,423.804901 637.780762,443.789581 
	C638.166199,446.137054 637.691772,448.625763 637.183228,451.074768 
M621.349487,404.268372 
	C620.921143,403.088959 620.492798,401.909546 619.623535,399.515991 
	C613.208130,413.930237 607.285400,427.237457 601.169861,440.977844 
	C610.506775,440.977844 618.747864,440.977844 627.963257,440.977844 
	C625.805176,428.706360 623.723389,416.868408 621.349487,404.268372 
z"/>
<path fill="#F6F6F5" opacity="1.000000" stroke="none" 
	d="
M1055.681641,511.319122 
	C1052.709961,492.568176 1052.851318,474.470398 1059.961670,456.950531 
	C1063.092529,449.236084 1067.823486,442.748016 1074.720581,437.933258 
	C1087.205322,429.217804 1103.180542,430.887878 1115.692261,442.627686 
	C1129.717651,455.787842 1136.967651,472.540710 1139.865112,491.210083 
	C1142.365723,507.322449 1142.554077,523.569763 1135.820557,538.761841 
	C1132.808228,545.558350 1128.335571,552.228821 1122.996704,557.368042 
	C1110.632324,569.270081 1091.093262,567.637634 1077.463013,555.037109 
	C1066.370605,544.782715 1060.718872,531.756409 1057.015869,517.577515 
	C1056.513550,515.654236 1056.197510,513.682373 1055.681641,511.319122 
M1075.472900,536.910339 
	C1077.516846,539.531250 1079.388306,542.310974 1081.632568,544.747437 
	C1096.547852,560.939758 1116.184814,557.856323 1125.490356,537.977478 
	C1131.477051,525.188599 1132.573486,511.681824 1130.884644,497.965515 
	C1128.640137,479.736511 1122.722900,462.876587 1108.588623,450.306641 
	C1104.712891,446.859863 1099.290039,444.088654 1094.214722,443.279480 
	C1084.093384,441.665802 1074.518311,447.905365 1070.148804,458.915863 
	C1059.658203,485.350403 1061.746216,511.245453 1075.472900,536.910339 
z"/>
<path fill="#050507" opacity="1.000000" stroke="none" 
	d="
M621.495483,404.649414 
	C623.723389,416.868408 625.805176,428.706360 627.963257,440.977844 
	C618.747864,440.977844 610.506775,440.977844 601.169861,440.977844 
	C607.285400,427.237457 613.208130,413.930237 619.623535,399.515991 
	C620.492798,401.909546 620.921143,403.088959 621.495483,404.649414 
z"/>
<path fill="#020305" opacity="1.000000" stroke="none" 
	d="
M1075.268188,536.604614 
	C1061.746216,511.245453 1059.658203,485.350403 1070.148804,458.915863 
	C1074.518311,447.905365 1084.093384,441.665802 1094.214722,443.279480 
	C1099.290039,444.088654 1104.712891,446.859863 1108.588623,450.306641 
	C1122.722900,462.876587 1128.640137,479.736511 1130.884644,497.965515 
	C1132.573486,511.681824 1131.477051,525.188599 1125.490356,537.977478 
	C1116.184814,557.856323 1096.547852,560.939758 1081.632568,544.747437 
	C1079.388306,542.310974 1077.516846,539.531250 1075.268188,536.604614 
z"/>
</svg>