<?xml version="1.0" standalone="no"?>
<!DOCTYPE svg PUBLIC "-//W3C//DTD SVG 20010904//EN"
 "http://www.w3.org/TR/2001/REC-SVG-20010904/DTD/svg10.dtd">
<svg version="1.0" xmlns="http://www.w3.org/2000/svg"
 width="962.000000pt" height="1034.000000pt" viewBox="0 0 962.000000 1034.000000"
 preserveAspectRatio="xMidYMid meet">

<g transform="translate(0.000000,1034.000000) scale(0.100000,-0.100000)"
fill="#000000" stroke="none">
<path d="M4160 9769 c-90 -23 -739 -143 -860 -159 -119 -16 -766 -134 -940
-171 -129 -28 -149 -35 -183 -65 -20 -19 -43 -34 -50 -34 -7 0 -64 -7 -127
-15 -299 -39 -515 -54 -1013 -75 -137 -5 -337 -18 -445 -29 -108 -11 -233 -23
-277 -27 -44 -4 -91 -11 -104 -16 l-24 -9 7 -127 c23 -427 29 -635 31 -1137 2
-598 9 -714 48 -790 18 -37 30 -47 67 -59 67 -22 154 -41 376 -80 110 -19 254
-51 320 -70 157 -45 426 -152 470 -187 7 -6 2 -27 -17 -66 -33 -70 -107 -321
-144 -493 -15 -69 -51 -201 -80 -295 -212 -675 -248 -809 -409 -1507 -42 -180
-125 -525 -185 -765 -60 -241 -139 -577 -176 -748 -37 -170 -91 -413 -122
-540 -30 -126 -72 -304 -93 -395 -21 -91 -59 -239 -84 -329 -25 -91 -46 -170
-46 -177 0 -8 22 -15 58 -19 31 -4 91 -15 132 -25 120 -30 587 -133 948 -209
376 -80 880 -168 1177 -206 110 -14 250 -37 310 -51 189 -43 478 -102 780
-160 160 -30 346 -68 415 -84 69 -16 231 -54 360 -84 229 -53 450 -98 850
-171 947 -172 1031 -190 1208 -246 51 -16 101 -29 111 -29 15 0 22 17 39 103
37 181 120 657 147 837 36 248 88 553 145 855 65 343 77 418 90 555 21 219 52
417 130 835 187 994 323 1848 337 2103 l6 112 48 0 c26 0 114 -12 196 -26 81
-14 229 -38 328 -54 99 -16 212 -37 250 -48 127 -35 263 -56 279 -43 8 7 69
114 136 239 150 277 326 573 464 775 57 84 138 213 181 287 43 74 98 164 123
200 25 36 64 97 87 135 23 39 59 97 79 129 48 79 47 102 -1 115 -21 6 -96 32
-166 58 -104 38 -139 56 -182 94 -30 26 -116 89 -192 140 -183 122 -235 164
-383 314 -123 125 -127 127 -272 202 -115 59 -165 91 -225 145 -111 100 -224
183 -299 219 -36 17 -132 73 -212 125 -98 63 -274 158 -527 284 -334 167 -762
385 -820 418 -11 6 -47 22 -80 34 -70 28 -155 82 -224 144 -43 39 -52 43 -75
34 -14 -5 -76 -19 -138 -31 -101 -19 -135 -21 -318 -16 -238 6 -299 16 -506
88 -281 97 -362 137 -538 266 -66 49 -82 51 -196 22z m895 -739 c33 -10 50
-19 38 -19 -33 -1 -28 -18 6 -26 16 -3 36 -14 43 -22 11 -14 10 -16 -7 -11
-11 4 -51 15 -88 26 -82 24 -114 47 -52 38 35 -6 37 -5 18 5 -13 7 -23 16 -23
21 0 10 -5 11 65 -12z m-55 -236 c0 -14 -3 -14 -15 -4 -8 7 -15 14 -15 16 0 2
7 4 15 4 8 0 15 -7 15 -16z m45 -4 c3 -5 -1 -10 -9 -10 -9 0 -16 5 -16 10 0 6
4 10 9 10 6 0 13 -4 16 -10z m35 -11 c0 -6 -4 -7 -10 -4 -5 3 -10 11 -10 16 0
6 5 7 10 4 6 -3 10 -11 10 -16z m-1191 -1383 c20 -24 105 -36 261 -36 l150 0
0 -25 c0 -30 15 -33 30 -5 8 15 21 20 48 20 59 0 112 -18 112 -38 0 -31 22
-42 81 -42 37 0 59 -4 62 -12 2 -7 14 6 26 30 12 23 25 42 30 42 5 0 28 -7 52
-15 58 -21 156 -42 247 -54 41 -5 75 -11 76 -13 1 -2 6 -16 12 -33 7 -21 23
-36 54 -52 58 -28 60 -28 60 3 l0 26 83 -7 c53 -5 85 -12 90 -21 6 -10 29 -14
80 -14 l73 0 12 -116 c13 -121 40 -259 67 -333 19 -54 17 -56 -77 -71 -82 -14
-102 -11 -106 16 -3 20 -8 21 -109 18 -59 -2 -111 0 -116 3 -5 3 0 13 13 23
19 14 21 22 15 64 -7 42 -9 46 -24 33 -20 -18 -77 -37 -109 -37 -13 0 -41 10
-60 22 -37 23 -37 21 5 -41 12 -18 21 -37 18 -41 -10 -16 -60 -17 -112 -4 -30
8 -86 14 -125 14 -61 0 -74 3 -101 26 -19 16 -40 24 -56 22 -14 -1 -32 1 -39
6 -10 6 -11 2 -7 -17 4 -14 2 -28 -4 -31 -6 -4 -11 -2 -11 3 0 6 -7 11 -15 11
-18 0 -20 16 -2 23 6 3 0 6 -15 6 -15 1 -30 6 -33 11 -16 26 -75 -6 -75 -42 0
-10 -7 -18 -15 -18 -8 0 -15 4 -15 9 0 5 -11 12 -25 15 -15 4 -22 11 -19 20 3
8 1 17 -5 21 -7 4 -11 -6 -11 -26 0 -27 -2 -30 -15 -19 -10 9 -15 9 -15 1 0
-14 -10 -14 -30 -1 -11 7 -12 12 -4 18 7 4 28 38 49 76 30 55 37 80 38 130 l2
61 -33 3 c-29 3 -34 0 -48 -34 -8 -20 -13 -42 -10 -49 6 -17 52 -25 65 -12 8
8 11 3 11 -15 0 -34 -24 -58 -58 -58 -24 0 -24 -1 -8 -13 13 -10 16 -20 12
-35 -4 -12 -11 -22 -16 -22 -15 0 -22 20 -11 34 8 9 6 13 -7 13 -9 0 -20 -5
-24 -11 -12 -18 -9 33 3 56 6 11 9 22 6 24 -2 2 -16 -18 -31 -46 l-27 -50 -84
0 c-98 0 -121 6 -104 26 10 12 4 13 -36 7 l-47 -6 7 53 7 52 -52 -28 c-48 -26
-51 -29 -29 -35 26 -7 20 -11 -36 -25 l-30 -8 35 -6 c39 -6 40 -13 12 -71
l-17 -37 -28 20 c-36 26 -59 77 -51 115 5 25 -2 36 -53 84 -32 31 -78 66 -101
78 -23 12 -42 25 -42 29 0 5 13 21 29 36 16 16 35 41 41 57 7 16 17 29 22 29
5 0 29 -21 53 -47 l44 -48 1 41 c0 51 -21 124 -48 161 l-20 28 74 40 c41 21
82 47 91 57 19 22 27 22 42 4z m-313 -582 c67 -23 74 -31 44 -56 -13 -11 -26
-15 -28 -10 -2 6 -14 5 -30 -4 -25 -13 -28 -12 -44 9 -21 26 -24 77 -5 77 7 0
36 -7 63 -16z m698 -49 c3 -8 1 -15 -3 -15 -5 0 -11 7 -15 15 -3 8 -1 15 3 15
5 0 11 -7 15 -15z m269 -32 c-7 -2 -19 -2 -25 0 -7 3 -2 5 12 5 14 0 19 -2 13
-5z m-959 -35 c12 -20 2 -44 -27 -62 -24 -15 -30 -3 -22 44 7 44 28 51 49 18z
m386 2 c0 -5 -5 -10 -11 -10 -5 0 -7 5 -4 10 3 6 8 10 11 10 2 0 4 -4 4 -10z
m655 -20 c-5 -16 -10 -19 -18 -11 -7 7 -6 15 3 26 17 20 24 13 15 -15z m-475
2 c0 -10 -7 -19 -15 -19 -18 0 -19 9 -3 25 16 16 18 15 18 -6z m-102 -44 c18
-18 15 -36 -9 -48 -27 -15 -32 -8 -24 29 7 34 14 38 33 19z m514 -40 c-12 -12
-32 -2 -32 17 0 18 34 24 38 7 2 -8 -1 -19 -6 -24z m-442 -16 c0 -5 -9 -18
-20 -30 -11 -12 -20 -28 -20 -37 0 -8 -5 -15 -11 -15 -8 0 -10 13 -6 38 5 25
3 32 -3 22 -5 -8 -10 -25 -10 -37 0 -23 -14 -28 -44 -17 -22 8 -4 39 37 64 32
20 77 27 77 12z m340 -22 c17 9 28 9 50 0 16 -7 33 -9 39 -6 22 14 19 -14 -8
-71 -29 -61 -66 -93 -123 -107 -21 -5 -31 -1 -46 19 -11 14 -29 28 -40 32 -19
7 -16 13 35 76 35 43 59 64 63 56 6 -8 13 -8 30 1z m-335 -10 c3 -5 1 -10 -4
-10 -6 0 -11 5 -11 10 0 6 2 10 4 10 3 0 8 -4 11 -10z m-260 -9 c3 -5 1 -12
-5 -16 -5 -3 -10 1 -10 9 0 18 6 21 15 7z m769 1 c6 -11 -51 -68 -60 -60 -3 4
2 20 11 37 15 30 38 40 49 23z m-906 -22 c17 -11 32 -26 32 -34 0 -16 -24 -38
-33 -30 -3 3 -10 -4 -17 -15 -14 -27 -36 -27 -50 0 -9 17 -8 23 5 33 14 10 15
17 7 33 -20 37 6 43 56 13z m960 -36 c14 -47 8 -59 -39 -78 -53 -22 -56 -21
-62 17 -4 27 0 36 31 64 21 18 42 32 48 33 6 0 16 -16 22 -36z m686 21 c-4 -8
-8 -15 -10 -15 -2 0 -4 7 -4 15 0 8 4 15 10 15 5 0 7 -7 4 -15z m-1174 -19 c0
-14 -4 -28 -10 -31 -6 -4 -10 7 -10 24 0 17 5 31 10 31 6 0 10 -11 10 -24z
m-205 -36 c3 -5 17 -10 31 -10 19 0 24 -5 24 -25 0 -22 -4 -25 -39 -25 -22 0
-43 5 -46 10 -3 6 -1 10 4 10 13 0 -20 35 -40 43 -8 3 3 6 23 6 20 1 40 -3 43
-9z m195 -20 c0 -5 -5 -10 -11 -10 -5 0 -7 5 -4 10 3 6 8 10 11 10 2 0 4 -4 4
-10z m-470 -45 c16 -9 19 -14 9 -15 -8 0 -24 7 -35 15 -24 18 -7 19 26 0z
m830 5 c0 -9 -31 -30 -44 -30 -4 0 -1 9 6 20 13 21 38 27 38 10z m140 -23 c0
-23 -17 -47 -32 -47 -4 0 -8 9 -8 20 0 11 -4 20 -10 20 -17 0 -11 18 8 23 35
9 42 7 42 -16z m737 -54 c-24 -32 -47 -66 -50 -75 -6 -18 -28 -24 -40 -12 -3
4 0 16 8 28 19 27 19 47 0 22 -12 -16 -17 -17 -30 -6 -17 14 -21 35 -5 25 6
-3 10 -2 10 3 0 5 11 14 25 20 23 11 27 9 34 -10 7 -20 9 -19 41 20 51 64 57
50 7 -15z m-1417 27 c0 -13 -11 -13 -30 0 -12 8 -11 10 8 10 12 0 22 -4 22
-10z m987 -32 c-3 -8 -6 -5 -6 6 -1 11 2 17 5 13 3 -3 4 -12 1 -19z m513 -4
c0 -8 -4 -14 -8 -14 -4 0 -8 9 -8 19 0 11 4 17 8 15 4 -3 8 -12 8 -20z"/>
<path d="M3815 7350 c-22 -16 -54 -34 -72 -40 l-31 -11 25 -55 c16 -35 27 -80
30 -127 l6 -74 46 -28 c25 -15 41 -30 34 -32 -20 -7 -75 27 -136 86 l-59 56
-34 -39 -34 -39 59 -39 c33 -21 81 -65 107 -97 l48 -59 50 34 c28 19 55 34 61
34 5 0 16 4 23 9 11 7 9 18 -11 57 -23 45 -56 147 -71 216 -4 19 -15 30 -31
34 -26 6 -35 24 -12 24 26 -1 95 -39 128 -71 l34 -34 36 37 36 37 -58 36 c-32
20 -71 53 -86 75 -15 22 -32 39 -38 39 -5 0 -28 -13 -50 -29z"/>
<path d="M3930 7342 c0 -10 47 -41 63 -42 9 0 17 -5 17 -10 0 -6 16 -18 35
-27 19 -9 35 -20 35 -23 0 -3 -14 -17 -31 -29 -41 -31 -56 -71 -69 -182 -5
-52 -12 -115 -15 -141 l-6 -48 102 0 101 0 -30 35 c-40 44 -46 81 -38 218 9
152 16 202 27 186 5 -8 9 -25 9 -38 0 -17 4 -22 16 -17 10 4 50 9 91 13 69 6
73 7 67 27 -15 49 -24 67 -36 71 -16 5 -338 11 -338 7z"/>
<path d="M4336 7301 c-14 -27 -14 -31 5 -55 l20 -26 -23 0 c-38 0 -31 10 -192
-272 l-21 -37 39 -40 c39 -39 39 -40 15 -45 -13 -3 -46 -7 -74 -9 -38 -3 -33
-4 23 -5 l73 -2 50 104 c30 63 56 106 67 108 33 9 82 -3 83 -21 4 -39 -4 -108
-17 -150 -7 -24 -11 -48 -8 -53 3 -4 44 -8 91 -8 76 0 84 2 79 17 -24 62 -66
319 -66 404 l0 97 -44 11 c-68 17 -84 14 -100 -18z m48 -138 c2 -10 8 -37 11
-60 7 -42 6 -43 -22 -43 -54 0 -60 13 -33 69 25 54 36 62 44 34z"/>
<path d="M4352 7115 c-10 -22 -9 -25 8 -25 21 0 26 16 12 38 -6 9 -12 6 -20
-13z"/>
<path d="M4671 7270 l-10 -30 64 0 c63 0 63 0 70 -31 5 -23 9 -28 16 -18 11
17 10 21 14 -81 2 -47 15 -138 29 -203 31 -140 32 -163 9 -176 -16 -9 -16 -10
4 -11 12 0 48 -7 79 -15 31 -8 60 -12 64 -10 5 3 -5 29 -20 57 -16 29 -35 80
-44 113 -19 77 -29 240 -17 285 5 19 9 28 10 18 1 -13 14 -17 66 -20 l65 -3
-6 35 c-4 19 -10 38 -13 43 -4 4 -52 14 -107 22 -54 9 -132 24 -172 35 -40 11
-76 20 -81 20 -5 0 -14 -13 -20 -30z"/>
<path d="M4494 7193 c11 -98 57 -347 70 -373 8 -19 24 -28 65 -38 29 -7 56
-11 58 -8 8 7 -55 183 -80 225 -15 25 -16 33 -6 29 19 -6 41 -52 93 -193 l44
-120 33 4 c47 4 89 28 89 49 -1 9 -20 114 -43 232 l-42 215 -63 3 c-50 2 -63
0 -69 -13 -3 -9 8 -58 26 -108 17 -51 34 -103 37 -117 5 -24 4 -23 -12 4 -24
43 -63 162 -70 217 l-7 49 -65 0 -65 0 7 -57z"/>
<path d="M4163 7213 c-17 -2 -34 -12 -38 -21 -4 -9 -9 -69 -11 -132 l-5 -115
24 29 c28 32 121 192 132 225 6 19 3 21 -32 19 -21 0 -52 -3 -70 -5z"/>
<path d="M3884 7168 c7 -61 56 -185 66 -167 4 8 10 38 14 67 7 52 7 53 -40
100 l-46 47 6 -47z"/>
<path d="M5210 7151 c0 -12 11 -48 24 -80 38 -94 41 -131 16 -206 -18 -53 -21
-77 -15 -127 l7 -60 74 4 c41 3 77 7 79 10 5 5 -31 115 -59 181 -9 20 -12 37
-7 37 11 0 46 -81 79 -186 25 -81 27 -84 57 -84 33 1 113 15 120 21 2 3 -5 31
-15 63 -24 71 -56 236 -66 334 l-7 72 -69 0 -69 0 6 -47 c4 -27 18 -79 32
-118 39 -111 39 -112 20 -97 -21 18 -54 118 -69 214 l-12 78 -32 0 c-17 0 -46
3 -63 6 -27 6 -31 4 -31 -15z"/>
<path d="M5100 7134 c0 -13 -8 -15 -49 -9 -44 6 -50 4 -69 -20 -37 -47 -45
-87 -32 -167 6 -40 17 -83 25 -94 20 -31 80 -65 124 -71 32 -4 43 0 75 27 56
50 80 103 72 164 -7 60 -49 132 -95 163 -40 27 -51 29 -51 7z m24 -105 c66
-78 -12 -211 -83 -140 -43 43 -33 132 19 158 34 17 35 17 64 -18z"/>
<path d="M5044 7005 c-23 -55 -14 -94 26 -115 52 -28 87 100 38 134 -34 24
-48 20 -64 -19z"/>
<path d="M4946 7114 c-10 -25 -1 -27 19 -4 15 17 16 20 3 20 -9 0 -19 -7 -22
-16z"/>
<path d="M4290 6882 c0 -4 9 -8 20 -9 11 -1 18 2 15 8 -7 11 -35 12 -35 1z"/>
<path d="M4402 6754 c1 -9 9 -19 16 -22 9 -3 13 2 10 14 -1 9 -9 19 -16 22 -9
3 -13 -2 -10 -14z"/>
<path d="M4405 6540 c-3 -5 -2 -10 4 -10 5 0 13 5 16 10 3 6 2 10 -4 10 -5 0
-13 -4 -16 -10z"/>
</g>
</svg>
